<mxfile host="app.diagrams.net" agent="Mozilla/5.0 (Windows NT 10.0; Win64; x64) AppleWebKit/537.36 (KHTML, like Gecko) Chrome/140.0.0.0 Safari/537.36" version="28.2.4" pages="3">
  <diagram name="Page-1" id="DC4EUtxScXDQz8LeXDEs">
    <mxGraphModel dx="1196" dy="628" grid="1" gridSize="10" guides="1" tooltips="1" connect="1" arrows="1" fold="1" page="1" pageScale="1" pageWidth="850" pageHeight="1100" math="0" shadow="0">
      <root>
        <mxCell id="0" />
        <mxCell id="1" parent="0" />
        <mxCell id="qAR_cHgTgi_QlGEqdmn8-2" value="BrandAFactory" style="swimlane;fontStyle=0;childLayout=stackLayout;horizontal=1;startSize=26;fillColor=none;horizontalStack=0;resizeParent=1;resizeParentMax=0;resizeLast=0;collapsible=1;marginBottom=0;whiteSpace=wrap;html=1;" parent="1" vertex="1">
          <mxGeometry x="170" y="210" width="230" height="78" as="geometry" />
        </mxCell>
        <mxCell id="qAR_cHgTgi_QlGEqdmn8-3" value="+ createSmartBulb(): SmartBulb&amp;nbsp;" style="text;strokeColor=none;fillColor=none;align=left;verticalAlign=top;spacingLeft=4;spacingRight=4;overflow=hidden;rotatable=0;points=[[0,0.5],[1,0.5]];portConstraint=eastwest;whiteSpace=wrap;html=1;" parent="qAR_cHgTgi_QlGEqdmn8-2" vertex="1">
          <mxGeometry y="26" width="230" height="26" as="geometry" />
        </mxCell>
        <mxCell id="qAR_cHgTgi_QlGEqdmn8-4" value="+ createSmartLock(): SmartLock&amp;nbsp;" style="text;strokeColor=none;fillColor=none;align=left;verticalAlign=top;spacingLeft=4;spacingRight=4;overflow=hidden;rotatable=0;points=[[0,0.5],[1,0.5]];portConstraint=eastwest;whiteSpace=wrap;html=1;" parent="qAR_cHgTgi_QlGEqdmn8-2" vertex="1">
          <mxGeometry y="52" width="230" height="26" as="geometry" />
        </mxCell>
        <mxCell id="EV0uH_-9Rdj58N2MW1hA-1" value="BrandBFactory" style="swimlane;fontStyle=0;childLayout=stackLayout;horizontal=1;startSize=26;fillColor=none;horizontalStack=0;resizeParent=1;resizeParentMax=0;resizeLast=0;collapsible=1;marginBottom=0;whiteSpace=wrap;html=1;" vertex="1" parent="1">
          <mxGeometry x="445" y="210" width="240" height="78" as="geometry" />
        </mxCell>
        <mxCell id="EV0uH_-9Rdj58N2MW1hA-2" value="+ createSmartBulb(): SmartBulb&amp;nbsp;" style="text;strokeColor=none;fillColor=none;align=left;verticalAlign=top;spacingLeft=4;spacingRight=4;overflow=hidden;rotatable=0;points=[[0,0.5],[1,0.5]];portConstraint=eastwest;whiteSpace=wrap;html=1;" vertex="1" parent="EV0uH_-9Rdj58N2MW1hA-1">
          <mxGeometry y="26" width="240" height="26" as="geometry" />
        </mxCell>
        <mxCell id="EV0uH_-9Rdj58N2MW1hA-3" value="+ createSmartLock(): SmartLock&amp;nbsp;" style="text;strokeColor=none;fillColor=none;align=left;verticalAlign=top;spacingLeft=4;spacingRight=4;overflow=hidden;rotatable=0;points=[[0,0.5],[1,0.5]];portConstraint=eastwest;whiteSpace=wrap;html=1;" vertex="1" parent="EV0uH_-9Rdj58N2MW1hA-1">
          <mxGeometry y="52" width="240" height="26" as="geometry" />
        </mxCell>
        <mxCell id="EV0uH_-9Rdj58N2MW1hA-12" value="«&lt;i&gt;interface&lt;/i&gt;»&lt;br&gt;&lt;b&gt;SmartBulb&lt;/b&gt;&lt;div&gt;&lt;b&gt;&lt;br&gt;&lt;/b&gt;&lt;div&gt;&lt;p style=&quot;text-align: left; margin: 0px 0px 0px 8px;&quot;&gt;+ setpowerUsage(x: float)&lt;/p&gt;&lt;p style=&quot;text-align: left; margin: 0px 0px 0px 8px;&quot;&gt;+ getpowerUsage(): float&lt;/p&gt;&lt;/div&gt;&lt;/div&gt;" style="html=1;whiteSpace=wrap;" vertex="1" parent="1">
          <mxGeometry x="200" y="544" width="200" height="116" as="geometry" />
        </mxCell>
        <mxCell id="EV0uH_-9Rdj58N2MW1hA-13" value="«&lt;i&gt;interface&lt;/i&gt;»&lt;br&gt;&lt;b&gt;SmartLock&lt;/b&gt;&lt;div&gt;&lt;p style=&quot;text-align: left; margin: 0px 0px 0px 8px;&quot;&gt;&lt;br&gt;&lt;/p&gt;&lt;p style=&quot;text-align: left; margin: 0px 0px 0px 8px;&quot;&gt;+ setbatteryUsage(x: float)&lt;/p&gt;&lt;p style=&quot;text-align: left; margin: 0px 0px 0px 8px;&quot;&gt;+ getbatteryUsage(): float&lt;/p&gt;&lt;/div&gt;" style="html=1;whiteSpace=wrap;" vertex="1" parent="1">
          <mxGeometry x="445" y="544" width="205" height="116" as="geometry" />
        </mxCell>
        <mxCell id="EV0uH_-9Rdj58N2MW1hA-14" value="" style="endArrow=none;html=1;edgeStyle=orthogonalEdgeStyle;rounded=0;startSize=6;" edge="1" parent="1">
          <mxGeometry relative="1" as="geometry">
            <mxPoint x="350" y="474" as="sourcePoint" />
            <mxPoint x="350" y="544" as="targetPoint" />
          </mxGeometry>
        </mxCell>
        <mxCell id="EV0uH_-9Rdj58N2MW1hA-17" value="" style="endArrow=none;html=1;edgeStyle=orthogonalEdgeStyle;rounded=0;" edge="1" parent="1">
          <mxGeometry relative="1" as="geometry">
            <mxPoint x="499.5" y="474" as="sourcePoint" />
            <mxPoint x="499.5" y="544" as="targetPoint" />
          </mxGeometry>
        </mxCell>
        <mxCell id="EV0uH_-9Rdj58N2MW1hA-25" value="" style="endArrow=block;dashed=1;endFill=0;endSize=12;html=1;rounded=0;" edge="1" parent="1">
          <mxGeometry width="160" relative="1" as="geometry">
            <mxPoint x="220" y="750" as="sourcePoint" />
            <mxPoint x="220" y="664" as="targetPoint" />
          </mxGeometry>
        </mxCell>
        <mxCell id="EV0uH_-9Rdj58N2MW1hA-26" value="" style="endArrow=block;dashed=1;endFill=0;endSize=12;html=1;rounded=0;" edge="1" parent="1">
          <mxGeometry width="160" relative="1" as="geometry">
            <mxPoint x="319.41" y="750" as="sourcePoint" />
            <mxPoint x="319.41" y="664" as="targetPoint" />
          </mxGeometry>
        </mxCell>
        <mxCell id="EV0uH_-9Rdj58N2MW1hA-27" value="" style="endArrow=block;dashed=1;endFill=0;endSize=12;html=1;rounded=0;" edge="1" parent="1">
          <mxGeometry width="160" relative="1" as="geometry">
            <mxPoint x="520" y="750" as="sourcePoint" />
            <mxPoint x="520" y="664" as="targetPoint" />
          </mxGeometry>
        </mxCell>
        <mxCell id="EV0uH_-9Rdj58N2MW1hA-28" value="" style="endArrow=block;dashed=1;endFill=0;endSize=12;html=1;rounded=0;" edge="1" parent="1">
          <mxGeometry width="160" relative="1" as="geometry">
            <mxPoint x="640" y="750" as="sourcePoint" />
            <mxPoint x="640" y="664" as="targetPoint" />
          </mxGeometry>
        </mxCell>
        <mxCell id="EV0uH_-9Rdj58N2MW1hA-29" value="Client" style="html=1;whiteSpace=wrap;" vertex="1" parent="1">
          <mxGeometry x="120" y="408" width="110" height="50" as="geometry" />
        </mxCell>
        <mxCell id="EV0uH_-9Rdj58N2MW1hA-30" value="" style="endArrow=open;endFill=1;endSize=12;html=1;rounded=0;" edge="1" parent="1">
          <mxGeometry width="160" relative="1" as="geometry">
            <mxPoint x="230" y="433" as="sourcePoint" />
            <mxPoint x="310" y="432.5" as="targetPoint" />
          </mxGeometry>
        </mxCell>
        <mxCell id="EV0uH_-9Rdj58N2MW1hA-32" value="&lt;p style=&quot;margin:0px;margin-top:4px;text-align:center;&quot;&gt;&lt;i&gt;&amp;lt;&amp;lt;interface&amp;gt;&amp;gt;&lt;/i&gt;&lt;br&gt;&lt;/p&gt;&lt;p style=&quot;margin:0px;margin-top:4px;text-align:center;&quot;&gt;&lt;b style=&quot;color: light-dark(rgb(0, 0, 0), rgb(255, 255, 255)); background-color: transparent;&quot;&gt;SmartDeviceFactory&lt;/b&gt;&lt;i&gt;&lt;/i&gt;&lt;/p&gt;&lt;hr size=&quot;1&quot; style=&quot;border-style:solid;&quot;&gt;&lt;p style=&quot;margin:0px;margin-left:4px;&quot;&gt;&lt;span style=&quot;color: rgba(0, 0, 0, 0); font-family: monospace; font-size: 0px; text-wrap-mode: nowrap;&quot;&gt;%3CmxGraphModel%3E%3Croot%3E%3CmxCell%20id%3D%220%22%2F%3E%3CmxCell%20id%3D%221%22%20parent%3D%220%22%2F%3E%3CmxCell%20id%3D%222%22%20value%3D%22%2B%20createSmartBulb()%3A%20SmartBulb%26amp%3Bnbsp%3B%22%20style%3D%22text%3BstrokeColor%3Dnone%3BfillColor%3Dnone%3Balign%3Dleft%3BverticalAlign%3Dtop%3BspacingLeft%3D4%3BspacingRight%3D4%3Boverflow%3Dhidden%3Brotatable%3D0%3Bpoints%3D%5B%5B0%2C0.5%5D%2C%5B1%2C0.5%5D%5D%3BportConstraint%3Deastwest%3BwhiteSpace%3Dwrap%3Bhtml%3D1%3B%22%20vertex%3D%221%22%20parent%3D%221%22%3E%3CmxGeometry%20x%3D%22210%22%20y%3D%22236%22%20width%3D%22230%22%20height%3D%2226%22%20as%3D%22geometry%22%2F%3E%3C%2FmxCell%3E%3C%2Froot%3E%3C%2FmxGraphModel%3E&lt;/span&gt;+ createSmartBulb(): SmartBulb&amp;nbsp;&lt;br&gt;+ createSmartLock(): SmartLock&amp;nbsp;&lt;/p&gt;&lt;p style=&quot;margin:0px;margin-left:4px;&quot;&gt;&lt;br&gt;&lt;/p&gt;" style="verticalAlign=top;align=left;overflow=fill;html=1;whiteSpace=wrap;" vertex="1" parent="1">
          <mxGeometry x="310" y="390" width="250" height="110" as="geometry" />
        </mxCell>
        <mxCell id="EV0uH_-9Rdj58N2MW1hA-33" value="" style="endArrow=block;dashed=1;endFill=0;endSize=12;html=1;rounded=0;entryX=0.18;entryY=0.013;entryDx=0;entryDy=0;entryPerimeter=0;" edge="1" parent="1" target="EV0uH_-9Rdj58N2MW1hA-32">
          <mxGeometry width="160" relative="1" as="geometry">
            <mxPoint x="354.5" y="288" as="sourcePoint" />
            <mxPoint x="355.11000000000007" y="366.986" as="targetPoint" />
          </mxGeometry>
        </mxCell>
        <mxCell id="EV0uH_-9Rdj58N2MW1hA-35" value="" style="endArrow=block;dashed=1;endFill=0;endSize=12;html=1;rounded=0;entryX=0.18;entryY=0.013;entryDx=0;entryDy=0;entryPerimeter=0;" edge="1" parent="1">
          <mxGeometry width="160" relative="1" as="geometry">
            <mxPoint x="480" y="288" as="sourcePoint" />
            <mxPoint x="480.5" y="391" as="targetPoint" />
          </mxGeometry>
        </mxCell>
        <mxCell id="EV0uH_-9Rdj58N2MW1hA-36" value="&lt;p style=&quot;margin:0px;margin-top:6px;text-align:center;&quot;&gt;BrandA_&lt;span style=&quot;background-color: transparent; color: light-dark(rgb(0, 0, 0), rgb(255, 255, 255));&quot;&gt;SmartBulb&lt;/span&gt;&lt;/p&gt;&lt;hr size=&quot;1&quot; style=&quot;border-style:solid;&quot;&gt;&lt;p style=&quot;margin:0px;margin-left:8px;&quot;&gt;-&amp;nbsp;powerUsage: float&lt;br&gt;&lt;/p&gt;&lt;p style=&quot;margin:0px;margin-left:8px;&quot;&gt;&lt;br&gt;&lt;/p&gt;&lt;p style=&quot;margin:0px;margin-left:8px;&quot;&gt;+ setpowerUsage(x: float)&lt;/p&gt;&lt;p style=&quot;margin:0px;margin-left:8px;&quot;&gt;+ getpowerUsage(): float&lt;/p&gt;" style="align=left;overflow=fill;html=1;dropTarget=0;whiteSpace=wrap;" vertex="1" parent="1">
          <mxGeometry x="70" y="750" width="160" height="110" as="geometry" />
        </mxCell>
        <mxCell id="EV0uH_-9Rdj58N2MW1hA-39" value="&lt;p style=&quot;margin:0px;margin-top:6px;text-align:center;&quot;&gt;BrandB_&lt;span style=&quot;background-color: transparent; color: light-dark(rgb(0, 0, 0), rgb(255, 255, 255));&quot;&gt;SmartBulb&lt;/span&gt;&lt;/p&gt;&lt;hr size=&quot;1&quot; style=&quot;border-style:solid;&quot;&gt;&lt;p style=&quot;margin:0px;margin-left:8px;&quot;&gt;- powerUsage: float&lt;br&gt;&lt;/p&gt;&lt;p style=&quot;margin:0px;margin-left:8px;&quot;&gt;&lt;br&gt;&lt;/p&gt;&lt;p style=&quot;margin: 0px 0px 0px 8px;&quot;&gt;+ setpowerUsage(&lt;span style=&quot;background-color: transparent; color: light-dark(rgb(0, 0, 0), rgb(255, 255, 255));&quot;&gt;x: float&lt;/span&gt;&lt;span style=&quot;background-color: transparent; color: light-dark(rgb(0, 0, 0), rgb(255, 255, 255));&quot;&gt;)&lt;/span&gt;&lt;/p&gt;&lt;p style=&quot;margin: 0px 0px 0px 8px;&quot;&gt;+ getpowerUsage(): float&lt;/p&gt;" style="align=left;overflow=fill;html=1;dropTarget=0;whiteSpace=wrap;" vertex="1" parent="1">
          <mxGeometry x="240" y="750" width="160" height="110" as="geometry" />
        </mxCell>
        <mxCell id="EV0uH_-9Rdj58N2MW1hA-40" value="&lt;p style=&quot;margin:0px;margin-top:6px;text-align:center;&quot;&gt;BrandA_&lt;span style=&quot;background-color: transparent; color: light-dark(rgb(0, 0, 0), rgb(255, 255, 255));&quot;&gt;SmartLock&lt;/span&gt;&lt;/p&gt;&lt;hr size=&quot;1&quot; style=&quot;border-style:solid;&quot;&gt;&lt;p style=&quot;margin:0px;margin-left:8px;&quot;&gt;- batteryConsumption: float&lt;br&gt;&lt;/p&gt;&lt;p style=&quot;margin:0px;margin-left:8px;&quot;&gt;&lt;br&gt;&lt;/p&gt;&lt;p style=&quot;margin: 0px 0px 0px 8px;&quot;&gt;+ setbatteryUsage(&lt;span style=&quot;background-color: transparent; color: light-dark(rgb(0, 0, 0), rgb(255, 255, 255));&quot;&gt;x: float&lt;/span&gt;&lt;span style=&quot;background-color: transparent; color: light-dark(rgb(0, 0, 0), rgb(255, 255, 255));&quot;&gt;)&lt;/span&gt;&lt;/p&gt;&lt;p style=&quot;margin: 0px 0px 0px 8px;&quot;&gt;+ getbatteryUsage(): float&lt;/p&gt;" style="align=left;overflow=fill;html=1;dropTarget=0;whiteSpace=wrap;" vertex="1" parent="1">
          <mxGeometry x="410" y="750" width="200" height="110" as="geometry" />
        </mxCell>
        <mxCell id="EV0uH_-9Rdj58N2MW1hA-41" value="&lt;p style=&quot;margin:0px;margin-top:6px;text-align:center;&quot;&gt;BrandB_&lt;span style=&quot;background-color: transparent; color: light-dark(rgb(0, 0, 0), rgb(255, 255, 255));&quot;&gt;SmartLock&lt;/span&gt;&lt;/p&gt;&lt;hr size=&quot;1&quot; style=&quot;border-style:solid;&quot;&gt;&lt;p style=&quot;margin:0px;margin-left:8px;&quot;&gt;- batteryConsumption: float&lt;br&gt;&lt;/p&gt;&lt;p style=&quot;margin:0px;margin-left:8px;&quot;&gt;&lt;br&gt;&lt;/p&gt;&lt;p style=&quot;margin: 0px 0px 0px 8px;&quot;&gt;+ setbatteryUsage(&lt;span style=&quot;background-color: transparent; color: light-dark(rgb(0, 0, 0), rgb(255, 255, 255));&quot;&gt;x: float&lt;/span&gt;&lt;span style=&quot;background-color: transparent; color: light-dark(rgb(0, 0, 0), rgb(255, 255, 255));&quot;&gt;)&lt;/span&gt;&lt;/p&gt;&lt;p style=&quot;margin: 0px 0px 0px 8px;&quot;&gt;+ getbatteryUsage(): float&lt;/p&gt;" style="align=left;overflow=fill;html=1;dropTarget=0;whiteSpace=wrap;" vertex="1" parent="1">
          <mxGeometry x="620" y="750" width="200" height="110" as="geometry" />
        </mxCell>
        <mxCell id="EV0uH_-9Rdj58N2MW1hA-46" value="" style="line;strokeWidth=1;fillColor=none;align=left;verticalAlign=middle;spacingTop=-1;spacingLeft=3;spacingRight=3;rotatable=0;labelPosition=right;points=[];portConstraint=eastwest;strokeColor=inherit;opacity=40;" vertex="1" parent="1">
          <mxGeometry x="240" y="801" width="160" height="8" as="geometry" />
        </mxCell>
        <mxCell id="EV0uH_-9Rdj58N2MW1hA-47" value="" style="line;strokeWidth=1;fillColor=none;align=left;verticalAlign=middle;spacingTop=-1;spacingLeft=3;spacingRight=3;rotatable=0;labelPosition=right;points=[];portConstraint=eastwest;strokeColor=inherit;opacity=40;" vertex="1" parent="1">
          <mxGeometry x="70" y="801" width="160" height="8" as="geometry" />
        </mxCell>
        <mxCell id="EV0uH_-9Rdj58N2MW1hA-48" value="" style="line;strokeWidth=1;fillColor=none;align=left;verticalAlign=middle;spacingTop=-1;spacingLeft=3;spacingRight=3;rotatable=0;labelPosition=right;points=[];portConstraint=eastwest;strokeColor=inherit;opacity=40;" vertex="1" parent="1">
          <mxGeometry x="410" y="801" width="200" height="8" as="geometry" />
        </mxCell>
        <mxCell id="EV0uH_-9Rdj58N2MW1hA-49" value="" style="line;strokeWidth=1;fillColor=none;align=left;verticalAlign=middle;spacingTop=-1;spacingLeft=3;spacingRight=3;rotatable=0;labelPosition=right;points=[];portConstraint=eastwest;strokeColor=inherit;opacity=40;" vertex="1" parent="1">
          <mxGeometry x="620" y="801" width="200" height="8" as="geometry" />
        </mxCell>
        <mxCell id="EV0uH_-9Rdj58N2MW1hA-53" value="" style="line;strokeWidth=1;fillColor=none;align=left;verticalAlign=middle;spacingTop=-1;spacingLeft=3;spacingRight=3;rotatable=0;labelPosition=right;points=[];portConstraint=eastwest;strokeColor=inherit;opacity=40;" vertex="1" parent="1">
          <mxGeometry x="200" y="598" width="200" height="8" as="geometry" />
        </mxCell>
        <mxCell id="EV0uH_-9Rdj58N2MW1hA-55" value="" style="line;strokeWidth=1;fillColor=none;align=left;verticalAlign=middle;spacingTop=-1;spacingLeft=3;spacingRight=3;rotatable=0;labelPosition=right;points=[];portConstraint=eastwest;strokeColor=inherit;opacity=40;" vertex="1" parent="1">
          <mxGeometry x="445" y="598" width="205" height="8" as="geometry" />
        </mxCell>
      </root>
    </mxGraphModel>
  </diagram>
  <diagram name="Observer: CashRegister → Display" id="Dt3W4HASSwY1znmJdkj2">
    <mxGraphModel dx="1428" dy="827" grid="1" gridSize="10" guides="1" tooltips="1" connect="1" arrows="1" fold="1" page="1" pageScale="1" pageWidth="1920" pageHeight="1080" math="0" shadow="0">
      <root>
        <mxCell id="0" />
        <mxCell id="1" parent="0" />
        <!-- CashRegister (Subject) -->
        <mxCell id="cash" value="&lt;div style=&quot;font-family:Consolas;font-size:14px&quot;&gt;&lt;div&gt;&lt;b&gt;CashRegister&lt;/b&gt;&lt;/div&gt;&lt;hr/&gt;&lt;div&gt;+ attach(observer)&lt;/div&gt;&lt;div&gt;+ detach(observer)&lt;/div&gt;&lt;div&gt;+ notify()&lt;/div&gt;&lt;div&gt;+ readBarcode()&lt;/div&gt;&lt;/div&gt;" style="rounded=0;whiteSpace=wrap;html=1;align=left;verticalAlign=top;spacing=8;strokeColor=#000000;fillColor=#F3F3F3;" vertex="1" parent="1">
          <mxGeometry x="240" y="300" width="280" height="200" as="geometry" />
        </mxCell>
        <!-- Display (Observer) -->
        <mxCell id="disp" value="&lt;div style=&quot;font-family:Consolas;font-size:14px&quot;&gt;&lt;div&gt;&lt;b&gt;Display&lt;/b&gt;&lt;/div&gt;&lt;hr/&gt;&lt;div&gt;+ update(product)&lt;/div&gt;&lt;/div&gt;" style="rounded=0;whiteSpace=wrap;html=1;align=left;verticalAlign=top;spacing=8;strokeColor=#000000;fillColor=#F3F3F3;" vertex="1" parent="1">
          <mxGeometry x="740" y="330" width="240" height="140" as="geometry" />
        </mxCell>
        <!-- Edge with label 'notifies' -->
        <mxCell id="edge1" value="notifies" style="endArrow=classic;html=1;strokeColor=#000000;labelBackgroundColor=#FFFFFF;align=center;verticalAlign=middle;" edge="1" parent="1" source="cash" target="disp">
          <mxGeometry relative="1" as="geometry" />
        </mxCell>
        <!-- Caption badges -->
        <mxCell id="cap1" value="Subject" style="whiteSpace=wrap;html=1;strokeColor=none;fillColor=none;fontStyle=1;fontSize=12;" vertex="1" parent="1">
          <mxGeometry x="240" y="270" width="60" height="20" as="geometry" />
        </mxCell>
        <mxCell id="cap2" value="Observer" style="whiteSpace=wrap;html=1;strokeColor=none;fillColor=none;fontStyle=1;fontSize=12;" vertex="1" parent="1">
          <mxGeometry x="740" y="300" width="70" height="20" as="geometry" />
        </mxCell>
      </root>
    </mxGraphModel>
  </diagram>
  <diagram name="Observer with Multiple Observers" id="CAh2Y5733_VBgRpCwuJ3">
    <mxGraphModel dx="1428" dy="827" grid="1" gridSize="10" guides="1" tooltips="1" connect="1" arrows="1" fold="1" page="1" pageScale="1" pageWidth="1920" pageHeight="1080" math="0" shadow="0">
      <root>
        <mxCell id="0" />
        <mxCell id="1" parent="0" />
        <!-- CashRegister (Subject) -->
        <mxCell id="cash2" value="&lt;div style=&quot;font-family:Consolas;font-size:14px&quot;&gt;&lt;div&gt;&lt;b&gt;CashRegister&lt;/b&gt;&lt;/div&gt;&lt;hr/&gt;&lt;div&gt;+ attach(o)&lt;/div&gt;&lt;div&gt;+ detach(o)&lt;/div&gt;&lt;div&gt;+ notify()&lt;/div&gt;&lt;div&gt;+ readBarcode()&lt;/div&gt;&lt;/div&gt;" style="rounded=0;whiteSpace=wrap;html=1;align=left;verticalAlign=top;spacing=8;strokeColor=#000000;fillColor=#F3F3F3;" vertex="1" parent="1">
          <mxGeometry x="220" y="300" width="280" height="200" as="geometry" />
        </mxCell>
        <!-- Display -->
        <mxCell id="disp2" value="&lt;div style=&quot;font-family:Consolas;font-size:14px&quot;&gt;&lt;div&gt;&lt;b&gt;Display&lt;/b&gt;&lt;/div&gt;&lt;hr/&gt;&lt;div&gt;+ update(p)&lt;/div&gt;&lt;/div&gt;" style="rounded=0;whiteSpace=wrap;html=1;align=left;verticalAlign=top;spacing=8;strokeColor=#000000;fillColor=#F3F3F3;" vertex="1" parent="1">
          <mxGeometry x="700" y="220" width="260" height="140" as="geometry" />
        </mxCell>
        <!-- InventorySystem -->
        <mxCell id="inv2" value="&lt;div style=&quot;font-family:Consolas;font-size:14px&quot;&gt;&lt;div&gt;&lt;b&gt;InventorySystem&lt;/b&gt;&lt;/div&gt;&lt;hr/&gt;&lt;div&gt;+ update(p)&lt;/div&gt;&lt;/div&gt;" style="rounded=0;whiteSpace=wrap;html=1;align=left;verticalAlign=top;spacing=8;strokeColor=#000000;fillColor=#F3F3F3;" vertex="1" parent="1">
          <mxGeometry x="700" y="360" width="260" height="140" as="geometry" />
        </mxCell>
        <!-- ReceiptPrinter -->
        <mxCell id="print2" value="&lt;div style=&quot;font-family:Consolas;font-size:14px&quot;&gt;&lt;div&gt;&lt;b&gt;ReceiptPrinter&lt;/b&gt;&lt;/div&gt;&lt;hr/&gt;&lt;div&gt;+ update(p)&lt;/div&gt;&lt;/div&gt;" style="rounded=0;whiteSpace=wrap;html=1;align=left;verticalAlign=top;spacing=8;strokeColor=#000000;fillColor=#F3F3F3;" vertex="1" parent="1">
          <mxGeometry x="700" y="500" width="260" height="140" as="geometry" />
        </mxCell>
        <!-- Edges -->
        <mxCell id="e1" value="notifies" style="endArrow=classic;html=1;strokeColor=#000000;labelBackgroundColor=#FFFFFF;" edge="1" parent="1" source="cash2" target="disp2">
          <mxGeometry relative="1" as="geometry" />
        </mxCell>
        <mxCell id="e2" value="notifies" style="endArrow=classic;html=1;strokeColor=#000000;labelBackgroundColor=#FFFFFF;" edge="1" parent="1" source="cash2" target="inv2">
          <mxGeometry relative="1" as="geometry" />
        </mxCell>
        <mxCell id="e3" value="notifies" style="endArrow=classic;html=1;strokeColor=#000000;labelBackgroundColor=#FFFFFF;" edge="1" parent="1" source="cash2" target="print2">
          <mxGeometry relative="1" as="geometry" />
        </mxCell>
        <mxCell id="cap1b" value="Subject" style="whiteSpace=wrap;html=1;strokeColor=none;fillColor=none;fontStyle=1;fontSize=12;" vertex="1" parent="1">
          <mxGeometry x="220" y="270" width="60" height="20" as="geometry" />
        </mxCell>
        <mxCell id="cap2b" value="Observers" style="whiteSpace=wrap;html=1;strokeColor=none;fillColor=none;fontStyle=1;fontSize=12;" vertex="1" parent="1">
          <mxGeometry x="700" y="190" width="80" height="20" as="geometry" />
        </mxCell>
      </root>
    </mxGraphModel>
  </diagram>
</mxfile>
